<svg width="177" height="188" viewBox="0 0 177 188" fill="none" xmlns="http://www.w3.org/2000/svg">
<path d="M45.6951 35.9851C50.5623 34.9421 63.3676 33.2328 69.1618 32.5085L72.6384 30.3357V5.99986L83.5026 7.30356L91.7594 4.26158L100.451 5.99986L108.273 0.785034L110.446 25.99C120.006 24.976 140.257 22.6004 144.777 21.2098C149.296 19.8191 157.959 16.5744 161.725 15.1258L171.72 83.7876C173.313 86.395 176.5 93.7827 176.5 102.474C176.5 113.338 175.631 153.753 175.631 155.926C175.631 157.664 170.996 160.706 168.678 162.01C167.954 163.893 166.244 167.92 165.201 168.963C163.898 170.267 44.3914 187.215 38.742 187.215C33.0926 187.215 23.0976 186.78 21.7939 184.608C20.4902 182.435 18.3173 132.894 18.3173 131.156C18.3173 129.417 12.6679 77.2691 10.4951 66.8394C8.7568 58.4957 3.10741 50.9053 0.5 48.153L10.4951 41.6345L9.19137 38.1579C12.5231 38.3028 20.5771 38.5056 26.1395 38.1579C33.0926 37.7234 39.6112 37.2888 45.6951 35.9851Z" fill="white"/>
<path d="M29.5919 180.635C30.022 180.635 30.4344 180.464 30.7385 180.161C31.0426 179.857 31.2134 179.446 31.2134 179.017C31.2134 178.588 31.0426 178.176 30.7385 177.873C30.4344 177.569 30.022 177.399 29.5919 177.399C29.1619 177.399 28.7494 177.569 28.4453 177.873C28.1412 178.176 27.9704 178.588 27.9704 179.017C27.9704 179.446 28.1412 179.857 28.4453 180.161C28.7494 180.464 29.1619 180.635 29.5919 180.635Z" fill="#151718"/>
<path d="M75.6692 16.0783C76.9664 27.7787 77.9696 39.4878 78.6787 51.2054C78.7954 53.2634 82.0385 53.2893 81.9217 51.2054C81.2212 39.4878 80.2181 27.7787 78.9122 16.0783C78.6917 14.0334 75.4486 14.0075 75.6692 16.0783Z" fill="#151718"/>
<path d="M82.0385 52.9139C83.1698 51.5438 84.3873 50.2468 85.6837 49.031C85.9855 48.7258 86.1547 48.3143 86.1547 47.8856C86.1547 47.4568 85.9855 47.0453 85.6837 46.7401C85.3746 46.445 84.9634 46.2803 84.5356 46.2803C84.1079 46.2803 83.6966 46.445 83.3876 46.7401C82.0954 47.9561 80.8822 49.253 79.7554 50.623C79.4503 50.9225 79.2658 51.323 79.2365 51.749C79.2433 52.1763 79.4153 52.5843 79.7165 52.888C80.0193 53.1909 80.4293 53.3628 80.858 53.3669C81.0706 53.3663 81.2809 53.3237 81.4768 53.2415C81.6728 53.1593 81.8504 53.0391 81.9996 52.888L82.0385 52.9139Z" fill="#151718"/>
<path d="M84.3216 49.1605C84.8924 49.2899 85.4632 49.4452 86.021 49.6264L86.7474 49.8853L87.1625 50.0406H87.0717L87.2793 50.1312C88.3161 50.5721 89.3068 51.114 90.2369 51.749C90.612 51.9593 91.0542 52.016 91.4704 51.9074C91.8866 51.7987 92.2443 51.5332 92.4681 51.1666C92.6717 50.7929 92.7246 50.3558 92.6161 49.9445C92.5076 49.5332 92.2459 49.1787 91.8844 48.9534C89.8664 47.5369 87.5869 46.5338 85.1778 46.0024C84.7635 45.8985 84.325 45.9592 83.9547 46.1716C83.5844 46.3841 83.3113 46.7318 83.193 47.1414C83.1337 47.3479 83.1159 47.564 83.1405 47.7774C83.1652 47.9909 83.2319 48.1973 83.3368 48.3849C83.4416 48.5725 83.5826 48.7376 83.7516 48.8707C83.9206 49.0038 84.1143 49.1023 84.3216 49.1605Z" fill="#151718"/>
<path d="M92.7016 51.1537C93.1565 50.3812 93.6591 49.6377 94.2064 48.9275L93.9599 49.2511C94.4651 48.6 95.0064 47.9778 95.5815 47.3873C95.7455 47.2401 95.8777 47.0612 95.97 46.8613C96.0623 46.6614 96.1128 46.4448 96.1183 46.2248C96.1238 46.0048 96.0843 45.786 96.0022 45.5818C95.9201 45.3775 95.797 45.1922 95.6406 45.037C95.4842 44.8818 95.2977 44.7601 95.0926 44.6793C94.8874 44.5985 94.6679 44.5603 94.4474 44.5671C94.2269 44.5739 94.0102 44.6255 93.8104 44.7187C93.6106 44.8119 93.4319 44.9448 93.2854 45.1093C91.9778 46.4348 90.8405 47.9173 89.8996 49.5229C89.6856 49.8963 89.6268 50.3387 89.736 50.7549C89.8451 51.1711 90.1135 51.528 90.4834 51.749C90.8572 51.9553 91.2964 52.0099 91.7095 51.9014C92.1227 51.7929 92.478 51.5298 92.7016 51.1666V51.1537Z" fill="#151718"/>
<path d="M94.6215 47.5685C94.9799 47.5427 95.3398 47.5427 95.6982 47.5685H95.2701C95.8321 47.6494 96.3813 47.8017 96.9046 48.0215L96.5155 47.8532C97.0103 48.0743 97.48 48.3477 97.9165 48.6686L97.5792 48.4098C97.8448 48.617 98.0962 48.8419 98.3316 49.0828C98.6352 49.3831 99.0455 49.5517 99.4731 49.5517C99.9007 49.5517 100.311 49.3831 100.615 49.0828C100.913 48.7782 101.079 48.3694 101.079 47.9438C101.079 47.5182 100.913 47.1095 100.615 46.8048C99.8424 46.0003 98.9107 45.365 97.8789 44.9394C96.8471 44.5138 95.7377 44.3072 94.6215 44.3327C94.1915 44.3327 93.779 44.5032 93.4749 44.8066C93.1708 45.11 93 45.5215 93 45.9506C93 46.3797 93.1708 46.7912 93.4749 47.0946C93.779 47.398 94.1915 47.5685 94.6215 47.5685Z" fill="#151718"/>
<path d="M101.289 48.7463C102.442 47.9245 103.41 46.8707 104.13 45.6529C104.239 45.4698 104.311 45.2669 104.34 45.0559C104.37 44.845 104.357 44.6303 104.303 44.4243C104.249 44.2182 104.154 44.0251 104.024 43.8561C103.894 43.687 103.732 43.5455 103.546 43.4397C103.353 43.3247 103.138 43.2515 102.914 43.2247C102.691 43.1979 102.464 43.2183 102.249 43.2844C101.855 43.3934 101.514 43.6418 101.289 43.9833C101.107 44.2875 100.908 44.5813 100.693 44.8634L100.952 44.5269C100.5 45.1073 99.9771 45.6291 99.3953 46.08L99.7196 45.8341L99.6158 45.9118C99.4334 46.0115 99.2777 46.1536 99.1618 46.326C99.0244 46.4817 98.9265 46.6682 98.8764 46.8696C98.8155 47.0849 98.7979 47.3101 98.8246 47.5322C98.8513 47.7544 98.9218 47.969 99.0321 48.1639C99.2525 48.5225 99.5996 48.7857 100.005 48.9016L100.433 48.9663C100.72 48.9671 101.002 48.8911 101.25 48.7463H101.289Z" fill="#151718"/>
<path d="M103.326 46.4166H102.898C103.684 46.518 104.452 46.7271 105.181 47.0378L104.792 46.8696C105.135 47.0126 105.468 47.1769 105.791 47.3614C105.984 47.4763 106.199 47.5506 106.422 47.5795C106.645 47.6084 106.872 47.5915 107.088 47.5297C107.491 47.4167 107.835 47.1523 108.048 46.7919C108.26 46.4192 108.318 45.9791 108.212 45.564C108.106 45.1489 107.842 44.7911 107.477 44.5657C106.093 43.7905 104.558 43.3225 102.976 43.1938C102.759 43.1869 102.543 43.2231 102.34 43.3004C102.138 43.3776 101.952 43.4943 101.795 43.6437C101.638 43.7931 101.513 43.9721 101.426 44.1704C101.339 44.3687 101.293 44.5823 101.289 44.7987C101.288 45.0129 101.33 45.2253 101.412 45.4231C101.495 45.6209 101.616 45.8003 101.769 45.9506C102.083 46.235 102.487 46.4 102.911 46.4166H103.326Z" fill="#151718"/>
<path d="M108.424 45.6788C105.829 34.2373 105.959 22.4722 106.089 10.8106C106.089 10.3815 105.918 9.96998 105.614 9.66657C105.31 9.36317 104.897 9.19271 104.467 9.19271C104.037 9.19271 103.625 9.36317 103.321 9.66657C103.017 9.96998 102.846 10.3815 102.846 10.8106C102.703 22.7698 102.651 34.8197 105.298 46.546C105.765 48.578 108.891 47.7108 108.424 45.6788Z" fill="#151718"/>
<path d="M102.937 9.82692L99.045 15.2759C98.9313 15.4693 98.8587 15.6841 98.832 15.9068C98.8052 16.1295 98.8247 16.3554 98.8894 16.5702C99.0025 16.9728 99.2675 17.316 99.6288 17.528C100 17.7386 100.439 17.797 100.853 17.6908C101.267 17.5845 101.624 17.3219 101.847 16.9585L105.739 11.4966C105.852 11.3032 105.926 11.0889 105.955 10.8665C105.984 10.6442 105.968 10.4182 105.907 10.2023C105.794 9.80358 105.535 9.46184 105.181 9.24448C104.806 9.04141 104.368 8.98861 103.956 9.09685C103.544 9.20508 103.188 9.46621 102.963 9.82692H102.937Z" fill="#151718"/>
<path d="M100.939 14.8617L94.868 11.2636C94.4949 11.054 94.0547 10.9976 93.6406 11.1064C93.2265 11.2151 92.8711 11.4804 92.6497 11.846C92.4397 12.2183 92.3832 12.6575 92.4922 13.0706C92.6012 13.4838 92.867 13.8384 93.2335 14.0593L99.3045 17.6574C99.4885 17.7645 99.6918 17.8343 99.9028 17.863C100.114 17.8917 100.329 17.8786 100.535 17.8245C100.74 17.7705 100.934 17.6764 101.103 17.5478C101.273 17.4192 101.415 17.2585 101.523 17.075C101.63 16.8914 101.7 16.6885 101.729 16.478C101.758 16.2674 101.744 16.0532 101.69 15.8477C101.636 15.6422 101.542 15.4493 101.413 15.2802C101.284 15.111 101.123 14.9688 100.939 14.8617Z" fill="#151718"/>
<path d="M92.2087 11.7813C91.7701 12.3063 91.3793 12.8694 91.0412 13.4639C90.709 14.0591 90.4312 14.6828 90.211 15.3277C90.149 15.5435 90.132 15.7696 90.161 15.9922C90.19 16.2148 90.2644 16.4291 90.3796 16.622C90.592 16.9824 90.9361 17.2468 91.3396 17.3597C91.5558 17.4215 91.7825 17.4385 92.0056 17.4095C92.2287 17.3806 92.4435 17.3064 92.6368 17.1914C92.9889 16.9693 93.2508 16.63 93.3762 16.2337C93.4426 16.0267 93.5206 15.8236 93.6097 15.6253L93.441 16.0136C93.7519 15.289 94.1528 14.6063 94.6345 13.9816L94.375 14.2146L94.5177 14.0204C94.6763 13.8826 94.7931 13.7033 94.855 13.5027C94.9533 13.3245 95.0025 13.1236 94.9977 12.9203C94.9916 12.4891 94.8198 12.0768 94.5177 11.7684C94.2136 11.4691 93.8034 11.3016 93.3762 11.3024C93.164 11.2976 92.9532 11.3365 92.7568 11.4167C92.5603 11.4969 92.3826 11.6166 92.2346 11.7684L92.2087 11.7813Z" fill="#151718"/>
<path d="M92.5589 14.6546L88.9008 11.4189C88.5935 11.1228 88.1863 10.952 87.7592 10.94C87.3271 10.9461 86.9138 11.1176 86.6047 11.4189C86.306 11.7257 86.1388 12.1366 86.1388 12.5643C86.1388 12.9921 86.306 13.403 86.6047 13.7098L90.2629 16.9455C90.5768 17.2378 90.9881 17.4038 91.4174 17.4115C91.844 17.4095 92.2532 17.2425 92.5589 16.9455C92.8632 16.6386 93.0355 16.2253 93.0389 15.7936C93.0348 15.3658 92.8625 14.9568 92.5589 14.6546Z" fill="#151718"/>
<path d="M86.3842 11.3542C84.5255 12.3198 82.8171 13.5492 81.3121 15.0041C81.0368 15.3131 80.8904 15.7155 80.9032 16.1288C80.916 16.542 81.0868 16.9347 81.3806 17.2262C81.6745 17.5177 82.069 17.686 82.4832 17.6963C82.8975 17.7067 83.3 17.5585 83.6081 17.282C84.1515 16.7634 84.7231 16.2752 85.3205 15.8195L84.9832 16.0654C85.9397 15.3623 86.9553 14.7431 88.0187 14.2146C88.3877 13.996 88.6558 13.6414 88.765 13.2273C88.8742 12.8132 88.8158 12.3728 88.6024 12.0013C88.3788 11.6382 88.0234 11.375 87.6103 11.2665C87.1972 11.1581 86.758 11.2126 86.3842 11.4189V11.3542Z" fill="#151718"/>
<path d="M83.5303 15.1853C82.0696 13.4957 80.3748 12.0226 78.4971 10.8106C78.1247 10.5977 77.6834 10.5394 77.2684 10.6484C76.8533 10.7573 76.4979 11.0248 76.2788 11.393C76.0688 11.7653 76.0123 12.2045 76.1213 12.6176C76.2302 13.0308 76.4961 13.3853 76.8626 13.6062C77.3728 13.9428 77.8658 14.2922 78.3414 14.6546L78.0171 14.4087C79.1913 15.3193 80.2692 16.3472 81.2342 17.4762C81.4626 17.6987 81.7514 17.8496 82.0647 17.9102C82.3781 17.9709 82.7024 17.9386 82.9976 17.8175C83.2929 17.6964 83.5461 17.4917 83.726 17.2286C83.906 16.9655 84.0048 16.6557 84.0103 16.3372C83.992 15.9087 83.8219 15.5005 83.5303 15.1853Z" fill="#151718"/>
<path d="M76.0583 12.2343C75.9631 14.1155 75.9978 16.001 76.1621 17.8774C76.1757 18.3045 76.3412 18.7129 76.6291 19.0293C76.9395 19.3271 77.353 19.494 77.7836 19.4953C78.2126 19.4919 78.6231 19.3204 78.9265 19.0177C79.2298 18.715 79.4017 18.3055 79.4051 17.8774C79.2408 16.001 79.2061 14.1155 79.3014 12.2343C79.298 11.8063 79.126 11.3967 78.8227 11.094C78.5193 10.7914 78.1088 10.6198 77.6798 10.6164C77.2529 10.6263 76.8462 10.7999 76.5442 11.1012C76.2422 11.4025 76.0682 11.8083 76.0583 12.2343Z" fill="#151718"/>
<path d="M78.6138 33.8749C58.8727 40.5939 38.0771 43.6983 17.2294 43.0385C15.1409 42.9737 15.1409 46.2095 17.2294 46.2742C38.3753 46.9415 59.4685 43.7978 79.4959 36.9941C81.4548 36.3211 80.6115 33.2018 78.6268 33.8749H78.6138Z" fill="#151718"/>
<path d="M15.4911 45.0705C18.9677 62.3881 20.0963 80.0164 21.4583 97.6317C22.8204 115.247 24.1306 132.811 24.8311 150.439C25.2073 159.952 25.2981 169.568 27.9185 178.797C27.9756 179.002 28.0725 179.193 28.2038 179.361C28.3351 179.528 28.4981 179.668 28.6836 179.773C28.8691 179.877 29.0735 179.944 29.2849 179.97C29.4964 179.996 29.7109 179.98 29.9162 179.923C30.1215 179.866 30.3135 179.769 30.4813 179.638C30.6491 179.507 30.7894 179.345 30.8942 179.159C30.999 178.974 31.0663 178.77 31.0921 178.559C31.1179 178.348 31.1019 178.134 31.0448 177.93C28.7098 169.711 28.4504 161.104 28.165 152.678C27.8277 143.765 27.3607 134.856 26.764 125.951C25.6354 108.452 24.3771 91.0049 22.7166 73.4932C21.8581 63.6701 20.4898 53.898 18.6174 44.2163C18.2023 42.1713 15.076 43.0385 15.4911 45.0705Z" fill="#151718"/>
<path d="M29.1898 180.428C37.3752 181.722 45.5218 180.428 53.4997 178.551C61.4776 176.674 69.5333 174.344 77.4723 172.002C93.3503 167.316 109.021 162.031 124.484 156.147C133.132 152.859 141.693 149.408 150.168 145.792C152.075 144.977 150.428 142.181 148.534 142.997C119.013 155.671 88.5816 166.119 57.4951 174.254C48.5832 176.584 39.334 178.874 30.0589 177.36C28.0093 177.024 27.1402 180.143 29.1898 180.479V180.428Z" fill="#151718"/>
<path d="M148.69 145.559C150.248 147.127 151.922 148.577 153.697 149.895C155.543 151.494 157.691 152.709 160.014 153.467C163.906 154.412 166.669 151.824 167.798 148.394C168.34 146.555 168.683 144.663 168.822 142.751C169.151 140.041 169.415 137.336 169.614 134.636C169.977 129.64 170.154 124.639 170.146 119.635C170.146 99.1201 167.305 78.748 164.049 58.5311C162.22 47.1025 160.157 35.6869 158.471 24.2324C158.159 22.1874 155.033 23.0546 155.344 25.0996C161.026 62.3364 169.614 99.8708 166.111 137.703C165.878 140.292 165.683 142.88 165.203 145.391C164.918 146.918 164.49 148.847 163.193 149.856C161.169 151.435 158.328 149.209 156.706 148.044C154.653 146.611 152.734 144.995 150.973 143.217C150.663 142.942 150.26 142.796 149.846 142.809C149.431 142.821 149.038 142.992 148.746 143.285C148.453 143.578 148.285 143.972 148.274 144.385C148.264 144.799 148.413 145.2 148.69 145.508V145.559Z" fill="#151718"/>
<path d="M156.564 22.4592C148.78 26.0573 140.543 27.0151 132.15 27.8435L106.309 30.4321C104.247 30.6391 104.221 33.8749 106.309 33.6678L133.421 31.0015C142.009 30.1602 150.285 28.9695 158.198 25.3067C160.092 24.4136 158.445 21.6309 156.564 22.511V22.4592Z" fill="#151718"/>
<path d="M30.3184 180.803C49.3356 182.253 68.1972 178.59 86.7734 175.004C105.894 171.329 125.119 168.417 144.448 166.087C151.492 165.246 161.662 165.116 164.619 157.182C164.683 156.942 164.69 156.69 164.641 156.446C164.592 156.203 164.488 155.974 164.336 155.776C164.185 155.579 163.99 155.419 163.767 155.308C163.544 155.197 163.299 155.139 163.05 155.137C136.095 158.204 109.356 162.929 82.9855 169.284C75.5394 171.087 68.1237 173.02 60.7382 175.082C60.3236 175.197 59.9718 175.472 59.7601 175.846C59.5485 176.219 59.4943 176.662 59.6096 177.075C59.7248 177.489 60 177.84 60.3747 178.051C60.7493 178.262 61.1927 178.316 61.6073 178.201C87.4951 170.98 113.805 165.36 140.387 161.376C147.929 160.237 155.483 159.24 163.05 158.386L161.493 156.341C160.378 159.331 157.199 160.664 154.32 161.414C150.429 162.227 146.491 162.789 142.528 163.097C133.447 164.197 124.445 165.401 115.416 166.76C97.2549 169.517 79.3014 173.71 61.1014 176.247C50.9164 177.777 40.5962 178.211 30.3184 177.541C28.2428 177.386 28.2428 180.622 30.3184 180.777V180.803Z" fill="#151718"/>
<path d="M89.3937 173.167C112.277 166.048 136.846 167.679 159.664 160.353C161.312 159.822 161.143 156.962 159.236 157.169C145.823 158.593 132.487 160.556 119.23 163.058C117.18 163.446 118.049 166.566 120.086 166.19C133.058 163.74 146.108 161.82 159.236 160.431L158.808 157.26C135.977 164.585 111.408 162.955 88.5376 170.073C86.5528 170.695 87.396 173.827 89.3937 173.192V173.167Z" fill="#151718"/>
<path d="M146.575 160.923C152.675 161.155 158.751 160.046 164.373 157.674C166.669 156.864 168.574 155.218 169.705 153.066C170.833 150.478 170.639 147.371 170.807 144.653C171.599 132.138 172.221 119.544 171.119 107.015C170.539 100.013 169.306 93.0801 167.434 86.3066C167.31 85.9051 167.035 85.5675 166.665 85.3652C166.296 85.1629 165.863 85.1119 165.457 85.2229C165.05 85.3339 164.703 85.5982 164.489 85.9599C164.275 86.3216 164.21 86.7523 164.308 87.1609C167.228 98.2331 168.629 109.649 168.472 121.097C168.472 126.831 168.265 132.552 167.953 138.272C167.798 141.133 167.616 143.993 167.434 146.841C167.266 149.429 167.434 152.16 164.944 153.791C162.288 155.346 159.368 156.399 156.33 156.897C153.126 157.578 149.849 157.861 146.575 157.739C144.487 157.661 144.5 160.897 146.575 160.974V160.923Z" fill="#151718"/>
<path d="M17.1516 45.4847C26.8029 47.8662 36.8434 45.2776 46.3909 43.5432L77.0701 38.0295C79.1197 37.6542 78.2506 34.535 76.214 34.9103L46.806 40.191C37.492 41.8736 27.4515 44.6822 18.0337 42.3654C16.01 41.8736 15.1409 44.954 17.1645 45.4847H17.1516Z" fill="#151718"/>
<path d="M15.3484 43.9833C17.5797 66.1847 19.9536 88.3732 22.4702 110.549C22.7037 112.594 25.9467 112.62 25.7132 110.549C23.1966 88.4163 20.8227 66.2279 18.5915 43.9833C18.3839 41.9254 15.1409 41.8995 15.3484 43.9833Z" fill="#151718"/>
<path d="M167.707 86.9797L167.292 80.6376C167.282 80.2117 167.108 79.8059 166.806 79.5046C166.504 79.2033 166.097 79.0297 165.67 79.0198C165.241 79.0232 164.831 79.1947 164.527 79.4974C164.224 79.8001 164.052 80.2096 164.049 80.6376L164.464 86.9797C164.464 87.4088 164.635 87.8203 164.939 88.1237C165.243 88.4271 165.655 88.5975 166.085 88.5975C166.515 88.5975 166.928 88.4271 167.232 88.1237C167.536 87.8203 167.707 87.4088 167.707 86.9797Z" fill="#151718"/>
<path d="M17.1645 47.1025L10.4839 48.0344C10.2815 48.0886 10.0921 48.1831 9.92714 48.3121C9.76219 48.4411 9.62504 48.602 9.52393 48.7851C9.40652 48.977 9.33084 49.1914 9.30178 49.4144C9.27273 49.6374 9.29096 49.8639 9.35529 50.0794C9.46792 50.4856 9.73262 50.8331 10.0947 51.0501C10.4959 51.2499 10.9528 51.3091 11.3919 51.2184L18.1245 50.2736C18.5363 50.1586 18.8859 49.8861 19.0973 49.5152C19.3087 49.1443 19.3647 48.7051 19.2531 48.2933C19.1398 47.8837 18.8695 47.535 18.5007 47.3226C18.1027 47.1123 17.6421 47.0526 17.2035 47.1543L17.1645 47.1025Z" fill="#151718"/>
<path d="M9.57581 50.8948C12.7021 54.7777 13.9864 59.6442 14.7647 64.446C15.556 69.8821 15.8025 75.3958 16.3343 80.8577C17.5278 92.9377 19.1104 104.94 21.0822 116.865C22.1545 123.664 23.3782 130.433 24.7533 137.172C25.1684 139.217 28.2947 138.35 27.8796 136.318C25.3803 124.005 23.2961 111.619 21.627 99.159C20.8227 93.1189 20.1179 87.0185 19.5125 80.8577C18.9677 75.2793 18.6823 69.6621 17.891 64.0319C17.0997 58.4017 15.4911 53.0433 11.8719 48.6039C10.5747 46.986 8.2786 49.2899 9.57581 50.8948Z" fill="#151718"/>
<path d="M19.4736 60.1361L18.1764 54.1953C17.8132 52.5515 16.97 50.1959 14.8036 50.4548L16.4251 52.0726L16.3473 50.6877C16.3439 50.2597 16.172 49.8501 15.8686 49.5475C15.5653 49.2448 15.1548 49.0732 14.7258 49.0699C14.2965 49.073 13.8851 49.2419 13.5779 49.5411C13.2708 49.8404 13.0917 50.2467 13.0783 50.6748L13.1561 52.0597C13.1561 52.8492 13.8696 53.7811 14.7777 53.6775C15.1409 53.6775 14.9204 53.6775 14.6998 53.6128C14.4793 53.5481 14.3626 53.3798 14.622 53.6128C14.3885 53.3928 14.622 53.6128 14.622 53.6905C14.622 53.7681 14.7517 54.0399 14.622 53.7811C14.8555 54.5059 14.9852 55.2566 15.1539 56.0073L16.2435 60.9903C16.3676 61.3918 16.6434 61.7295 17.0125 61.9317C17.3817 62.134 17.8152 62.185 18.2214 62.074C18.6276 61.9631 18.9745 61.6987 19.1889 61.337C19.4032 60.9754 19.4681 60.5446 19.3698 60.1361H19.4736Z" fill="#151718"/>
<path d="M151.881 147.32L133.071 155.642C127 158.334 120.968 161.22 114.715 163.408C108.629 165.624 102.288 167.072 95.8409 167.718C90.0683 168.261 84.0492 167.964 78.8473 170.902C78.6283 171.028 78.4413 171.203 78.301 171.413C78.1607 171.623 78.0707 171.862 78.0381 172.113C78.0055 172.363 78.0311 172.618 78.1129 172.856C78.1948 173.095 78.3307 173.312 78.5101 173.49C80.0797 174.784 81.805 174.784 83.6989 174.396C86.2934 173.969 88.8878 173.413 91.3525 172.778C91.5578 172.721 91.7498 172.625 91.9176 172.494C92.0855 172.363 92.2258 172.2 92.3306 172.015C92.4354 171.83 92.5026 171.626 92.5284 171.415C92.5543 171.204 92.5382 170.99 92.4811 170.785C92.424 170.58 92.3271 170.389 92.1958 170.221C92.0645 170.054 91.9015 169.914 91.716 169.809C91.5305 169.705 91.3262 169.638 91.1147 169.612C90.9032 169.586 90.6887 169.602 90.4834 169.659C88.7711 170.086 87.0328 170.487 85.2945 170.824C84.2827 171.031 81.6753 171.976 80.7672 171.199L80.4429 173.788C85.7485 170.798 92.3514 171.51 98.2019 170.772C104.528 169.996 110.742 168.48 116.713 166.255C122.836 163.964 128.751 161.169 134.719 158.489L153.567 150.115C155.474 149.261 153.827 146.478 151.933 147.32H151.881Z" fill="#151718"/>
<path d="M96.9324 73.6694C89.7256 73.6153 81.3723 76.9165 77.5069 83.2592C76.5435 84.8516 76.0511 86.6803 76.0858 88.5367C76.1206 90.3931 76.6811 92.2025 77.7034 93.7583C79.7999 97.1353 83.2832 99.2243 86.6573 101.151C87.0323 101.369 87.4794 101.431 87.9002 101.322C88.3211 101.213 88.6811 100.944 88.9012 100.572C89.1213 100.2 89.1834 99.7569 89.0739 99.3398C88.9643 98.9226 88.6921 98.5657 88.317 98.3475C85.5654 96.7781 82.5516 95.1004 80.7499 92.4594C79.8567 91.275 79.3741 89.836 79.3741 88.3572C79.3741 86.8785 79.8567 85.4394 80.7499 84.255C84.2878 79.3411 91.0359 76.8732 96.9324 76.9165C97.3668 76.9165 97.7834 76.7455 98.0906 76.441C98.3977 76.1365 98.5703 75.7236 98.5703 75.293C98.5703 74.8624 98.3977 74.4494 98.0906 74.1449C97.7834 73.8405 97.3668 73.6694 96.9324 73.6694Z" fill="#151718"/>
<path d="M86.5809 99.181C76.5723 108.22 68.4158 119.087 62.5583 131.187C61.652 133.059 64.4692 134.705 65.3864 132.821C71.1095 120.952 79.0965 110.293 88.9067 101.432C90.4681 100.025 88.1423 97.7306 86.5809 99.1377V99.181Z" fill="#151718"/>
<path d="M62.591 132.832C63.535 134.4 64.8133 135.745 66.3364 136.772C66.7176 136.986 67.1682 137.044 67.5921 136.934C68.0026 136.816 68.3534 136.55 68.5748 136.187C68.6874 136 68.76 135.792 68.7881 135.576C68.8163 135.36 68.7995 135.141 68.7386 134.932C68.6101 134.533 68.3432 134.191 67.9852 133.969L67.4829 133.601L67.8323 133.86C67.1195 133.312 66.4809 132.676 65.9324 131.966L66.1835 132.302C65.911 131.956 65.6594 131.594 65.4301 131.219C65.2086 130.857 64.8578 130.59 64.4473 130.472C64.022 130.366 63.5713 130.428 63.1916 130.646C62.8218 130.848 62.5472 131.186 62.4272 131.587C62.3184 132.008 62.3771 132.453 62.591 132.832Z" fill="#151718"/>
<path d="M68.5421 136.718C71.5778 134.365 74.2041 131.535 76.3167 128.34C76.4343 128.156 76.5133 127.95 76.5489 127.735C76.5844 127.519 76.5758 127.299 76.5236 127.087C76.4715 126.875 76.3767 126.676 76.2451 126.501C76.1134 126.326 75.9476 126.179 75.7574 126.07C75.5673 125.96 75.3568 125.889 75.1384 125.862C74.9201 125.834 74.6984 125.851 74.4866 125.91C74.2749 125.969 74.0773 126.07 73.9059 126.207C73.7344 126.344 73.5924 126.513 73.4885 126.706C73.2265 127.095 72.9644 127.474 72.6914 127.853C72.5604 128.026 72.4403 128.199 72.3093 128.362L72.1018 128.643C71.5231 129.358 70.9443 130.05 70.311 130.721C69.0618 132.053 67.7071 133.284 66.2599 134.401C65.9559 134.707 65.7854 135.119 65.7854 135.549C65.7854 135.978 65.9559 136.39 66.2599 136.696C66.5766 136.986 66.9918 137.147 67.4228 137.147C67.8539 137.147 68.2691 136.986 68.5858 136.696L68.5421 136.718Z" fill="#151718"/>
<path d="M73.5977 129.065L76.6333 130.505C77.5963 131.058 78.618 131.505 79.6798 131.836C80.1465 131.958 80.6354 131.968 81.107 131.867C81.5786 131.766 82.0195 131.557 82.3939 131.255C82.7683 130.953 83.0658 130.569 83.262 130.132C83.4583 129.695 83.5478 129.218 83.5234 128.741C83.4857 127.885 83.1931 127.061 82.6826 126.37C82.4097 125.959 81.2085 124.866 81.3505 124.325C81.3505 124.411 81.3505 124.325 81.5689 124.249C81.7919 124.232 82.0157 124.266 82.224 124.346C83.098 124.789 83.9374 125.295 84.7355 125.862C85.501 126.344 86.3992 126.578 87.3052 126.532C88.2111 126.485 89.08 126.16 89.7912 125.602C91.2107 124.314 91.0032 122.203 90.2061 120.644C89.6653 119.931 89.2245 119.148 88.8958 118.317C88.8359 118.142 88.8359 117.952 88.8958 117.776C88.8958 117.776 88.7101 117.776 88.8958 117.863C90.1842 118.285 91.2107 119.27 92.652 119.194C94.8905 119.086 95.764 116.889 95.4255 114.973C94.9381 112.824 93.8435 110.856 92.2698 109.301C90.8285 107.764 88.5136 110.07 89.9549 111.596C91.0679 112.691 91.8539 114.069 92.2262 115.579C92.3026 116.001 92.1497 115.979 92.4882 115.958C92.1606 115.958 91.5382 115.514 91.1888 115.33C90.6242 114.945 89.97 114.709 89.2878 114.645C88.6057 114.581 87.9183 114.69 87.2906 114.962C86.6197 115.387 86.1032 116.012 85.8164 116.748C85.5296 117.484 85.4876 118.292 85.6964 119.053C85.9066 119.802 86.2386 120.511 86.6791 121.153C86.9958 121.64 87.6728 122.409 87.5745 123.047C87.5745 123.307 87.4107 123.35 86.974 123.275C86.2858 123.071 85.6494 122.724 85.1067 122.257C84.4788 121.756 83.7468 121.4 82.9634 121.213C82.1799 121.025 81.3643 121.013 80.5752 121.175C79.7989 121.369 79.1214 121.839 78.6707 122.495C78.22 123.152 78.0274 123.949 78.1293 124.736C78.2777 125.665 78.6777 126.536 79.2867 127.258C79.556 127.577 79.804 127.913 80.0292 128.264C79.9746 128.167 80.2804 128.849 80.2585 128.838C80.2367 128.827 80.5752 128.838 80.4879 128.687C80.2968 128.603 80.0997 128.535 79.8982 128.481C79.4068 128.275 78.9373 128.015 78.4678 127.788L75.192 126.251C73.3029 125.342 71.6432 128.135 73.5431 129.055L73.5977 129.065Z" fill="#151718"/>
<path d="M92.2152 111.812L97.533 105.881C97.6939 105.732 97.823 105.553 97.9125 105.354C98.002 105.155 98.0501 104.94 98.054 104.722C98.0579 104.504 98.0174 104.287 97.9351 104.085C97.8527 103.883 97.7301 103.699 97.5745 103.545C97.419 103.391 97.2337 103.269 97.0298 103.188C96.8259 103.106 96.6074 103.066 96.3875 103.07C96.1676 103.074 95.9507 103.121 95.7498 103.21C95.5488 103.299 95.368 103.427 95.2181 103.586L89.9003 109.518C89.7394 109.666 89.6103 109.846 89.5208 110.045C89.4313 110.244 89.3832 110.459 89.3793 110.677C89.3754 110.895 89.4159 111.111 89.4982 111.314C89.5806 111.516 89.7032 111.699 89.8588 111.854C90.0143 112.008 90.1996 112.129 90.4035 112.211C90.6075 112.293 90.8259 112.333 91.0458 112.329C91.2657 112.325 91.4826 112.277 91.6836 112.188C91.8845 112.1 92.0653 111.972 92.2152 111.812Z" fill="#151718"/>
<path d="M95.7094 105.221C97.5778 106.616 99.7318 107.589 102.02 108.07C104.308 108.552 106.675 108.531 108.954 108.009C111.234 107.487 113.37 106.477 115.213 105.049C117.056 103.621 118.561 101.81 119.623 99.7438C124.078 90.7601 120.223 80.2611 111.684 75.3038C109.076 73.8277 106.197 72.8834 103.215 72.5265C100.234 72.1696 97.2102 72.4073 94.3227 73.2256C93.9365 73.3685 93.6183 73.6496 93.4307 74.0134C93.2432 74.3773 93.2 74.7976 93.3096 75.1915C93.4193 75.5854 93.6738 75.9243 94.023 76.1414C94.3722 76.3586 94.7908 76.4382 95.1962 76.3645C103.397 74.1348 112.722 77.2629 116.707 85.0235C120.212 91.8425 117.614 101.486 110.09 104.355C108.122 105.149 105.982 105.435 103.871 105.185C101.761 104.935 99.7488 104.158 98.0243 102.926C96.3864 101.649 94.0497 103.933 95.7094 105.221Z" fill="#151718"/>
<path d="M106.727 84.1468C107.142 78.2154 107.885 69.8919 114.371 67.2185C115.584 66.6525 116.944 66.4694 118.266 66.694C119.588 66.9185 120.809 67.5398 121.763 68.474C122.626 69.4096 123.265 70.5263 123.631 71.7408C123.998 72.9552 124.084 74.2361 123.881 75.4878C123.357 78.9081 121.152 81.7872 118.596 84.0277C117.024 85.4132 119.339 87.7078 120.911 86.3224C123.849 83.9027 125.949 80.6327 126.917 76.9706C127.319 75.2835 127.347 73.5299 126.998 71.8312C126.649 70.1324 125.932 68.529 124.897 67.1319C123.798 65.6971 122.31 64.6016 120.607 63.973C118.903 63.3445 117.055 63.2087 115.277 63.5817C113.431 64.0024 111.701 64.8169 110.205 65.9684C108.71 67.1199 107.486 68.5807 106.618 70.2491C104.237 74.492 103.812 79.3952 103.451 84.1468C103.298 86.2358 106.574 86.225 106.727 84.1468Z" fill="#151718"/>
<path d="M103.484 79.2436C101.016 78.3561 98.1008 77.6634 95.8405 79.3844C93.5802 81.1053 93.602 84.2334 95.0324 86.5605C97.5439 90.6735 103.397 93.2171 108.026 91.1931C110.636 90.0349 112.296 86.712 110.593 84.136C110.366 83.7729 110.007 83.5099 109.591 83.4012C109.174 83.2924 108.732 83.3462 108.354 83.5515C107.981 83.7704 107.711 84.1259 107.6 84.5411C107.49 84.9563 107.549 85.3979 107.764 85.7704C107.764 85.7704 107.983 86.1708 107.917 86.0193C107.917 86.0842 108.016 86.4739 107.994 86.2791C108.02 86.5385 107.99 86.8004 107.906 87.0476C107.775 87.3375 107.586 87.5976 107.349 87.8117C107.112 88.0258 106.834 88.1894 106.531 88.2923C105.054 88.7884 103.447 88.7462 101.999 88.1732C100.531 87.6647 99.2368 86.757 98.2646 85.5539C97.8303 85.0035 97.5077 84.375 97.3146 83.703C97.2182 83.3986 97.1957 83.076 97.2491 82.7614C97.2881 82.5423 97.3905 82.3393 97.5439 82.1769C97.7486 81.9945 97.9807 81.8448 98.2318 81.7331C98.5776 81.5927 98.9505 81.5298 99.3237 81.5491C100.482 81.6261 101.618 81.9084 102.676 82.3825C103.096 82.4927 103.542 82.4354 103.92 82.2229C104.298 82.0105 104.576 81.6598 104.696 81.246C104.801 80.8302 104.741 80.39 104.528 80.0171C104.314 79.6442 103.964 79.3672 103.55 79.2436H103.484Z" fill="#151718"/>
</svg>
